Simulation
nRows=31
nColumns=15
endheader
time  TH_x TH_y TH_z SC_y  SC_z  SC_x  AC_y  AC_z  AC_x  GH_y  GH_z  GH_yy  EL_x  PS_y
4.8020000000000005  0.000000  0.000000  0.000000  -50.66265705694234  15.600278791182772  56.79239832124525  59.21982349485699  -8.683384632055501  1.985041019612661  5.762131287412936  49.86447629297362  -1.1032451889092234  13.586108356660452  120.000000
4.850020000000001  0.000000  0.000000  0.000000  -50.32515986705087  15.77462394985279  56.77293214113411  59.15589185585757  -8.68819243303452  2.233669202613773  5.3163471483116895  49.88882127303301  -0.6740926915193249  13.54806593105258  120.000000
4.898040000000001  0.000000  0.000000  0.000000  -49.99537010315815  15.950316482558826  56.74020938008353  59.0435781933848  -8.769291873835721  2.319720143480179  5.249164428314107  49.704724747600835  -0.33220056666220343  13.408097468407243  120.000000
4.946060000000001  0.000000  0.000000  0.000000  -49.69545412761461  16.109939611369224  56.710112458204414  58.90424272248575  -8.918044279318703  2.2581100122425934  5.519457308338573  49.173140495914005  -0.06643472798301868  13.210073062713036  120.000000
4.99408  0.000000  0.000000  0.000000  -49.43325279028402  16.249368298184173  56.683535865333106  58.75386501546233  -9.13037436233378  2.064765395939156  6.0895674636850465  48.18748406693369  0.09655129441803709  12.991210636929733  120.000000
5.0421000000000005  0.000000  0.000000  0.000000  -49.208519678234644  16.398126511654176  56.58615314978768  58.60173637463374  -9.401191516780717  1.7545225817819874  6.94566431502744  46.724790902982946  0.08862815826307559  12.779773516234046  120.000000
5.090120000000001  0.000000  0.000000  0.000000  -49.013788443983586  16.644159472708218  56.197975459251296  58.4518804722806  -9.709525437820632  1.3605819087232096  8.13165263684315  44.904826455148026  -0.20315037519563459  12.600144031361975  120.000000
5.138140000000001  0.000000  0.000000  0.000000  -48.849382174462114  17.06336582285399  55.329689777201914  58.31402964611103  -10.068951868042989  0.9187064762462614  9.734306453914202  42.91800058592943  -0.8902991036352913  12.471127341120269  120.000000
5.186160000000001  0.000000  0.000000  0.000000  -48.712020913825235  17.657187980155605  53.89920265969272  58.195528815343835  -10.534157918687027  0.44715260527534606  11.8401842071748  40.966983002094324  -2.0222459181865746  12.401810589827694  120.000000
5.234180000000001  0.000000  0.000000  0.000000  -48.56327874350562  18.328025935609688  51.875948641551254  58.08505877323648  -11.147260827684532  -0.06060429719907629  14.480258032023386  39.239645489917  -3.535087631526938  12.388463763442275  120.000000
5.2822000000000005  0.000000  0.000000  0.000000  -48.33911510469002  18.925129590033386  49.26803657288849  57.93489419106834  -11.911322563122951  -0.6299825139151817  17.58867803604192  37.84096149891093  -5.23470418564705  12.413601075080065  120.000000
5.330220000000001  0.000000  0.000000  0.000000  -47.97200140745292  19.291184274571943  46.126090635565646  57.65897495885661  -12.765668877500243  -1.2941406416629686  21.007494231961875  36.7343487402459  -6.8424489915794915  12.449904196099919  120.000000
5.378240000000001  0.000000  0.000000  0.000000  -47.39920244712248  19.28869707301487  42.54444611029968  57.16803217135732  -13.552936755237296  -2.085934800341873  24.537426698210865  35.73067164552858  -8.09281011528687  12.464078993975985  120.000000
5.426260000000001  0.000000  0.000000  0.000000  -46.59015788004489  18.835082841484148  38.67634862276252  56.4266760907301  -14.036422561805871  -3.009759302093137  28.017866170978508  34.55110992925076  -8.842916968801516  12.426642335883505  120.000000
5.474280000000001  0.000000  0.000000  0.000000  -45.56280237794917  17.936370241850682  34.738445651301475  55.493872336393295  -13.968872460197982  -4.022074254890937  31.39116402943518  32.95517410887263  -9.126200120449335  12.326536189903948  120.000000
5.5223  0.000000  0.000000  0.000000  -44.38573062370035  16.681995143652447  30.978321568235792  54.50646820948664  -13.201900219722035  -5.043565170157611  34.72331048277095  30.883883135825617  -9.132108347406822  12.181081054243423  120.000000
5.570320000000001  0.000000  0.000000  0.000000  -43.152630932294656  15.194560413854308  27.603900372565203  53.586992924792106  -11.778716684182287  -6.019956848882437  38.17251017349739  28.50709182705412  -9.130645722024186  12.031617756581168  120.000000
5.618340000000001  0.000000  0.000000  0.000000  -41.94495994367496  13.564201201711956  24.716164454102824  52.76731191621188  -9.917322214961795  -6.998718416523399  41.91288581378445  26.139589341531572  -9.379874321492764  11.927115708356398  120.000000
5.666360000000001  0.000000  0.000000  0.000000  -40.80222783526798  11.852493229434302  22.259786810190274  52.02037277424448  -7.8474342846181395  -8.03662303402441  46.00189608101953  24.04757959165257  -9.996318506412859  11.900808172597271  120.000000
5.714380000000001  0.000000  0.000000  0.000000  -39.71800913695958  10.108771244280636  20.069918543991637  51.31886197013184  -5.697079546255292  -9.09297394071965  50.308124660169696  22.339713733592202  -10.888572204229037  11.962616639934506  120.000000
5.762400000000001  0.000000  0.000000  0.000000  -38.6547294442283  8.363930320890455  18.001302864052352  50.64480130637934  -3.5416999531873885  -10.11517998240696  54.58293906655373  21.03224278304166  -11.834906680034084  12.120873808129799  120.000000
5.810420000000001  0.000000  0.000000  0.000000  -37.57528539160598  6.630407004064565  15.982230893814377  49.98356027605807  -1.4512126223906903  -11.07929752630805  58.50413467637437  20.09809756699556  -12.535988695317144  12.384470710575503  120.000000
5.858440000000001  0.000000  0.000000  0.000000  -36.47724399726167  4.92864811700932  13.993665002513021  49.35059438761289  0.5023168571479353  -11.95579594932439  61.718811049060015  19.47850881368108  -12.671143066325014  12.754203717811226  120.000000
5.906460000000001  0.000000  0.000000  0.000000  -35.390364968775906  3.286269026377067  12.060703029340003  48.783483372276685  2.2236067683866123  -12.708523029607592  63.89836422652188  19.09238736022504  -11.960422151441662  13.212355595711381  120.000000
5.954480000000001  0.000000  0.000000  0.000000  -34.36755538431864  1.772189381492327  10.197612581726146  48.37694453586164  3.623417176381866  -13.256315886944797  64.81692381378512  18.848405115306015  -10.232523090983493  13.727013981054604  120.000000
6.002500000000001  0.000000  0.000000  0.000000  -33.448983069964896  0.4593219838760048  8.37893987670527  48.18812221695552  4.735747659037096  -13.508143591687302  64.609427067198  18.66281010135524  -7.650477870694041  14.278367361948495  120.000000
6.050520000000001  0.000000  0.000000  0.000000  -32.67471842496207  -0.656430359506578  6.610191205519905  48.10574781783145  5.692981759412684  -13.461788022046807  63.769238509009874  18.512196833997656  -4.6912418394112185  14.869567657867641  120.000000
6.098540000000001  0.000000  0.000000  0.000000  -32.04970730593696  -1.564429287106182  4.910114402809471  48.01898316254722  6.572806133256748  -13.164854726513564  62.705875777368426  18.429111753630863  -1.7565819397719606  15.478889983863388  120.000000
6.146560000000001  0.000000  0.000000  0.000000  -31.554187779858427  -2.2498553812464155  3.27427119606911  47.9002725193848  7.413300920319765  -12.68399541279596  61.623728260395986  18.446247936577926  0.9497355699606396  16.06411688825284  120.000000
6.194580000000001  0.000000  0.000000  0.000000  -31.166577022246365  -2.735135924474712  1.6867065456877226  47.72060769056425  8.236432410859145  -12.08149264310856  60.61328083382111  18.559532286445414  3.3469880708478428  16.588081742975167  120.000000
6.242600000000001  0.000000  0.000000  0.000000  -30.85015935165909  -3.0598989844091316  0.13094486332117392  47.47743879658595  9.036825115627344  -11.394847882319388  59.662960124382494  18.742026898463905  5.459988457150259  17.014591102534048  120.000000
